<svg xmlns="http://www.w3.org/2000/svg" xmlns:xlink="http://www.w3.org/1999/xlink" width="40" zoomAndPan="magnify" viewBox="0 0 30 30.000001" height="40" preserveAspectRatio="xMidYMid meet" version="1.0"><defs><clipPath id="a215595a57"><path d="M 0.484375 0 L 29.515625 0 L 29.515625 29.03125 L 0.484375 29.03125 Z M 0.484375 0 " clip-rule="nonzero"/></clipPath><clipPath id="2c279445d5"><path d="M 15 0 C 6.984375 0 0.484375 6.5 0.484375 14.515625 C 0.484375 22.53125 6.984375 29.03125 15 29.03125 C 23.015625 29.03125 29.515625 22.53125 29.515625 14.515625 C 29.515625 6.5 23.015625 0 15 0 Z M 15 0 " clip-rule="nonzero"/></clipPath><clipPath id="d57c27398b"><path d="M 6.875 9 L 22.84375 9 L 22.84375 23.558594 L 6.875 23.558594 Z M 6.875 9 " clip-rule="nonzero"/></clipPath><clipPath id="6bc1fbf116"><path d="M 6.875 5.414062 L 22.84375 5.414062 L 22.84375 15 L 6.875 15 Z M 6.875 5.414062 " clip-rule="nonzero"/></clipPath></defs><g clip-path="url(#a215595a57)"><g clip-path="url(#2c279445d5)"><path fill="#000000" d="M 0.484375 0 L 29.515625 0 L 29.515625 29.03125 L 0.484375 29.03125 Z M 0.484375 0 " fill-opacity="1" fill-rule="nonzero"/></g></g><g clip-path="url(#d57c27398b)"><path fill="#ffffff" d="M 8.230469 16.355469 C 9.027344 16.355469 9.777344 16.359375 10.53125 16.351562 C 11.550781 16.34375 12.574219 16.378906 13.589844 16.296875 C 15.097656 16.171875 16.230469 15.371094 17.074219 14.132812 C 17.15625 14.011719 17.242188 13.886719 17.351562 13.789062 C 17.589844 13.578125 17.863281 13.5625 18.117188 13.738281 C 18.363281 13.910156 18.460938 14.148438 18.375 14.4375 C 18.332031 14.578125 18.265625 14.714844 18.1875 14.839844 C 17.394531 16.113281 16.257812 16.941406 14.832031 17.390625 C 14.605469 17.464844 14.378906 17.546875 14.148438 17.578125 C 13.816406 17.625 13.792969 17.804688 13.839844 18.078125 C 14.144531 19.777344 15.648438 21.292969 17.425781 21.691406 C 19.042969 22.050781 20.460938 21.648438 21.703125 20.578125 C 21.800781 20.496094 21.898438 20.40625 22.007812 20.34375 C 22.332031 20.152344 22.671875 20.214844 22.886719 20.492188 C 23.105469 20.773438 23.082031 21.101562 22.792969 21.367188 C 21.871094 22.214844 20.824219 22.832031 19.574219 23.050781 C 16.296875 23.621094 13.222656 21.542969 12.519531 18.289062 C 12.402344 17.738281 12.324219 17.671875 11.765625 17.675781 C 10.257812 17.675781 8.75 17.675781 7.246094 17.691406 C 6.988281 17.695312 6.886719 17.644531 6.886719 17.355469 C 6.898438 14.769531 6.898438 12.183594 6.894531 9.59375 C 6.890625 9.355469 6.949219 9.253906 7.207031 9.273438 C 7.460938 9.296875 7.722656 9.289062 7.976562 9.277344 C 8.175781 9.265625 8.234375 9.339844 8.230469 9.53125 C 8.226562 10.40625 8.230469 11.277344 8.230469 12.148438 C 8.230469 13.445312 8.230469 14.746094 8.230469 16.042969 C 8.230469 16.132812 8.230469 16.21875 8.230469 16.355469 Z M 8.230469 16.355469 " fill-opacity="1" fill-rule="nonzero"/></g><g clip-path="url(#6bc1fbf116)"><path fill="#ffffff" d="M 6.898438 6.757812 C 6.898438 6.339844 6.890625 5.945312 6.914062 5.554688 C 6.914062 5.507812 7.09375 5.4375 7.1875 5.4375 C 8.695312 5.429688 10.199219 5.417969 11.703125 5.4375 C 12.523438 5.449219 13.363281 5.425781 14.160156 5.574219 C 16.835938 6.082031 18.402344 7.769531 19.019531 10.375 C 19.117188 10.773438 19.289062 10.953125 19.695312 11.019531 C 20.839844 11.210938 21.824219 11.75 22.671875 12.539062 C 22.785156 12.644531 22.886719 12.773438 22.960938 12.910156 C 23.082031 13.144531 23.039062 13.371094 22.867188 13.570312 C 22.6875 13.773438 22.453125 13.871094 22.199219 13.761719 C 22.003906 13.675781 21.824219 13.546875 21.65625 13.410156 C 20.679688 12.632812 19.585938 12.175781 18.320312 12.222656 C 16.71875 12.28125 15.5 13.042969 14.558594 14.296875 C 14.449219 14.4375 14.351562 14.589844 14.230469 14.71875 C 13.996094 14.964844 13.683594 15.007812 13.421875 14.847656 C 13.148438 14.679688 13.042969 14.371094 13.164062 14.042969 C 13.199219 13.941406 13.253906 13.84375 13.3125 13.753906 C 14.277344 12.277344 15.621094 11.359375 17.347656 11.003906 C 17.769531 10.917969 17.769531 10.925781 17.691406 10.507812 C 17.351562 8.695312 15.652344 7.074219 13.824219 6.832031 C 13.453125 6.78125 13.074219 6.761719 12.699219 6.761719 C 10.898438 6.753906 9.09375 6.757812 7.292969 6.757812 C 7.175781 6.757812 7.058594 6.757812 6.898438 6.757812 Z M 6.898438 6.757812 " fill-opacity="1" fill-rule="nonzero"/></g></svg>