<svg xmlns="http://www.w3.org/2000/svg" xmlns:xlink="http://www.w3.org/1999/xlink" width="500" zoomAndPan="magnify" viewBox="0 0 375 374.999991" height="500" preserveAspectRatio="xMidYMid meet" version="1.0"><defs><clipPath id="5d2e37276c"><path d="M 20.15625 79 L 354 79 L 354 366 L 20.15625 366 Z M 20.15625 79 " clip-rule="nonzero"/></clipPath><clipPath id="cd6d8b979f"><path d="M 20.15625 0 L 353 0 L 353 197 L 20.15625 197 Z M 20.15625 0 " clip-rule="nonzero"/></clipPath></defs><g clip-path="url(#5d2e37276c)"><path fill="#ffffff" d="M 48.074219 225.378906 C 64.5 225.378906 79.984375 225.488281 95.472656 225.355469 C 116.480469 225.160156 137.589844 225.917969 158.488281 224.203125 C 189.605469 221.65625 212.921875 205.09375 230.28125 179.621094 C 231.996094 177.109375 233.796875 174.539062 236.039062 172.542969 C 240.949219 168.179688 246.550781 167.898438 251.78125 171.5 C 256.863281 175.003906 258.875 179.90625 257.074219 185.882812 C 256.203125 188.761719 254.84375 191.589844 253.25 194.152344 C 236.882812 220.417969 213.449219 237.484375 184.132812 246.757812 C 179.464844 248.226562 174.785156 249.953125 169.980469 250.605469 C 163.15625 251.523438 162.667969 255.234375 163.671875 260.894531 C 169.90625 295.921875 200.890625 327.160156 237.546875 335.332031 C 270.878906 342.769531 300.050781 334.460938 325.703125 312.421875 C 327.710938 310.695312 329.707031 308.882812 331.960938 307.546875 C 338.589844 303.601562 345.597656 304.886719 350.03125 310.597656 C 354.554688 316.429688 354.0625 323.214844 348.144531 328.65625 C 329.144531 346.136719 307.582031 358.816406 281.769531 363.324219 C 214.292969 375.097656 150.929688 332.316406 136.460938 265.230469 C 134.011719 253.898438 132.40625 252.550781 120.890625 252.578125 C 89.859375 252.636719 58.816406 252.636719 27.785156 252.933594 C 22.480469 252.980469 20.375 251.964844 20.398438 245.984375 C 20.667969 192.707031 20.65625 139.425781 20.53125 86.136719 C 20.519531 81.175781 21.734375 79.117188 26.976562 79.53125 C 32.257812 79.960938 37.597656 79.839844 42.890625 79.558594 C 46.957031 79.335938 48.171875 80.878906 48.132812 84.835938 C 47.988281 102.808594 48.097656 120.769531 48.097656 138.742188 C 48.097656 165.484375 48.085938 192.242188 48.074219 218.984375 C 48.074219 220.796875 48.074219 222.609375 48.074219 225.378906 Z M 48.074219 225.378906 " fill-opacity="1" fill-rule="nonzero"/></g><g clip-path="url(#cd6d8b979f)"><path fill="#ffffff" d="M 20.691406 27.699219 C 20.691406 19.039062 20.496094 10.929688 20.949219 2.855469 C 21.011719 1.921875 24.648438 0.464844 26.621094 0.453125 C 57.640625 0.304688 88.671875 0.0625 119.679688 0.464844 C 136.574219 0.6875 153.808594 0.207031 170.273438 3.320312 C 225.378906 13.734375 257.660156 48.527344 270.402344 102.222656 C 272.351562 110.429688 275.914062 114.066406 284.332031 115.476562 C 307.902344 119.421875 328.152344 130.519531 345.585938 146.753906 C 347.925781 148.933594 350.046875 151.59375 351.539062 154.410156 C 354.085938 159.210938 353.167969 163.953125 349.617188 168.019531 C 345.929688 172.234375 341.136719 174.207031 335.894531 171.953125 C 331.863281 170.214844 328.140625 167.507812 324.671875 164.738281 C 304.558594 148.6875 282.050781 139.28125 255.957031 140.25 C 223.003906 141.460938 197.902344 157.167969 178.445312 182.992188 C 176.242188 185.917969 174.230469 189.054688 171.722656 191.691406 C 166.882812 196.761719 160.449219 197.621094 155.035156 194.324219 C 149.398438 190.894531 147.28125 184.535156 149.730469 177.75 C 150.476562 175.664062 151.566406 173.644531 152.792969 171.78125 C 172.6875 141.425781 200.386719 122.484375 235.964844 115.171875 C 244.601562 113.394531 244.625 113.503906 243.019531 104.953125 C 236.011719 67.625 200.988281 34.167969 163.339844 29.167969 C 155.695312 28.152344 147.90625 27.785156 140.1875 27.761719 C 103.042969 27.625 65.898438 27.699219 28.753906 27.699219 C 26.351562 27.699219 23.949219 27.699219 20.691406 27.699219 Z M 20.691406 27.699219 " fill-opacity="1" fill-rule="nonzero"/></g></svg>